<svg width="26pt" height="26pt" viewBox="0 0 26 26" xmlns="http://www.w3.org/2000/svg"><g id="fontsvg1675227364018" stroke-linecap="round" fill-rule="evenodd" fill="#000000"><path d="M 25.665 4.805 L 25.665 20.86 Q 25.665 22.852 24.258 24.258 A 4.624 4.624 0 0 1 20.922 25.664 A 5.608 5.608 0 0 1 20.86 25.665 L 4.805 25.665 Q 2.813 25.665 1.407 24.258 A 4.624 4.624 0 0 1 0.001 20.922 A 5.608 5.608 0 0 1 0.001 20.86 L 0.001 4.805 Q 0.001 2.813 1.407 1.407 A 4.624 4.624 0 0 1 4.743 0.001 A 5.608 5.608 0 0 1 4.805 0.001 L 20.86 0.001 Q 22.852 0.001 24.258 1.407 A 4.624 4.624 0 0 1 25.664 4.743 A 5.608 5.608 0 0 1 25.665 4.805 Z M 24.61 20.86 L 24.61 12.833 L 12.833 12.833 L 12.833 1.055 L 4.805 1.055 Q 3.223 1.055 2.169 2.169 A 3.464 3.464 0 0 0 1.057 4.683 A 4.41 4.41 0 0 0 1.055 4.805 L 1.055 12.833 L 12.833 12.833 L 12.833 24.61 L 20.86 24.61 Q 22.442 24.61 23.497 23.497 A 3.464 3.464 0 0 0 24.608 20.983 A 4.41 4.41 0 0 0 24.61 20.86 Z" vector-effect="non-scaling-stroke"/></g></svg>