<svg width="27pt" height="30pt" viewBox="0 0 27 30" xmlns="http://www.w3.org/2000/svg"><g id="fontsvg1675227313813" stroke-linecap="round" fill-rule="evenodd" fill="#000000"><path d="M 25.43 2.988 L 14.531 15.938 L 20.156 22.031 A 9.22 9.22 0 0 0 21.086 21.219 Q 21.861 20.436 22.207 19.629 L 24.024 19.629 A 6.993 6.993 0 0 1 23.283 21.627 A 5.786 5.786 0 0 1 21.68 23.437 L 24.785 27.129 A 1.718 1.718 0 0 1 25.32 27.232 Q 25.855 27.438 26.012 28.041 A 2.114 2.114 0 0 1 26.074 28.477 Q 26.018 29.213 25.414 29.62 A 1.873 1.873 0 0 1 25.371 29.648 A 2.349 2.349 0 0 1 24.672 29.921 Q 24.377 29.988 24.035 29.998 A 4.236 4.236 0 0 1 23.906 30 A 1.969 1.969 0 0 1 23.266 29.877 Q 22.427 29.549 22.383 28.359 L 19.219 24.961 Q 17.168 26.074 15.352 26.25 L 14.531 24.902 A 7.735 7.735 0 0 0 16.377 24.463 A 6.291 6.291 0 0 0 17.93 23.613 L 13.008 17.754 L 8.145 23.613 A 6.603 6.603 0 0 0 10.764 24.783 A 8.141 8.141 0 0 0 11.485 24.902 L 10.723 26.25 Q 8.903 26.079 6.917 25.025 A 14.554 14.554 0 0 1 6.797 24.961 L 3.692 28.359 Q 3.578 29.783 2.468 29.989 A 1.903 1.903 0 0 1 2.403 30 A 5 5 0 0 1 1.715 29.955 Q 1.213 29.886 0.82 29.707 A 1.515 1.515 0 0 1 0.399 29.45 A 1.218 1.218 0 0 1 0 28.711 A 2.638 2.638 0 0 1 0.06 28.124 Q 0.246 27.31 1.018 27.16 A 1.875 1.875 0 0 1 1.289 27.129 L 4.395 23.438 A 5.907 5.907 0 0 1 2.051 19.629 L 3.867 19.629 A 4.61 4.61 0 0 0 4.49 20.657 Q 4.832 21.092 5.304 21.52 A 9.942 9.942 0 0 0 5.918 22.031 L 11.485 15.938 L 0.645 2.988 L 0 0 L 13.008 14.238 L 26.074 0 L 25.43 2.988 Z" vector-effect="non-scaling-stroke"/></g></svg>