<svg xmlns="http://www.w3.org/2000/svg" xmlns:xlink="http://www.w3.org/1999/xlink" width="50" height="68"><path d="M30.80 42.01L17.23 42.01Q17.02 43.17 16.45 44.61L16.45 44.61L31.57 44.61Q31.04 43.52 30.80 42.01L30.80 42.01ZM30.66 41.38L30.66 41.38L31.99 38.57Q28.05 37.20 23.98 37.16L23.98 37.16Q20.18 37.13 16.00 38.57L16.00 38.57L17.33 41.38Q20.74 40.25 23.98 40.25L23.98 40.25Q27.25 40.25 30.66 41.38ZM18.35 47.71L18.35 47.71L12.30 47.71Q14.27 44.26 14.41 40.96L14.41 40.96Q11.04 37.51 9.63 34.44Q8.23 31.36 9.49 27.88L9.49 27.88Q10.44 25.10 12.92 22.36Q15.40 19.62 22.04 15.12L22.04 15.12Q21.55 14.80 20.71 14.06Q19.86 13.32 19.86 11.74L19.86 11.74Q19.86 10.05 21.09 8.93L21.09 8.93Q22.29 7.84 23.98 7.84Q25.66 7.84 26.89 8.93L26.89 8.93Q28.13 10.05 28.13 11.74L28.13 11.74Q28.13 13.32 27.28 14.06Q26.44 14.80 25.95 15.12L25.95 15.12Q32.55 19.62 35.05 22.36Q37.55 25.10 38.50 27.88L38.50 27.88Q39.73 31.36 38.34 34.44Q36.95 37.51 33.61 40.96L33.61 40.96Q33.71 44.26 35.68 47.71L35.68 47.71L29.67 47.71Q29.88 48.09 29.95 48.16L29.95 48.16Q30.90 49.71 31.99 49.92Q33.08 50.13 34.59 50.13L34.59 50.13L41.94 50.13Q44.16 50.13 46.09 51.96Q48.02 53.79 48.02 57.20L48.02 57.20L33.50 57.20Q29.88 57.20 26.93 54.70Q23.98 52.21 23.98 48.90L23.98 48.90Q23.98 52.21 21.02 54.70Q18.07 57.20 14.52 57.20L14.52 57.20L0 57.20Q0 53.79 1.90 51.96Q3.80 50.13 6.08 50.13L6.08 50.13L13.39 50.13Q14.91 50.13 16.00 49.92Q17.09 49.71 18.07 48.16L18.07 48.16Q18.11 48.06 18.18 47.95L18.18 47.95Q18.25 47.81 18.35 47.71ZM22.32 23.59L22.32 26.68L18.98 26.68L18.98 29.85L22.32 29.85L22.32 34.98L25.66 34.98L25.66 29.85L29.04 29.85L29.04 26.68L25.66 26.68L25.66 23.59L22.32 23.59Z"/></svg>