<svg xmlns="http://www.w3.org/2000/svg" xmlns:xlink="http://www.w3.org/1999/xlink" width="50" height="68"><path d="M41.52 57.20L7.77 57.20L9.56 46.51Q0 37.97 0 30.80L0 30.80Q0 20.85 11.50 19.37L11.50 19.37Q14.06 19.05 19.20 23.03L19.20 23.03Q21.27 19.93 23.27 19.20L23.27 19.20L23.27 14.91L19.69 14.91L19.69 11.92L23.27 11.92L23.27 9.14L26.02 9.14L26.02 11.92L29.60 11.92L29.60 14.91L26.02 14.91L26.02 19.20Q27.95 19.86 30.13 23.06L30.13 23.06Q34.91 18.84 37.79 19.37L37.79 19.37Q49.25 21.41 49.29 30.80L49.29 30.80Q49.32 38.11 39.73 46.51L39.73 46.51L41.52 57.20ZM26.23 41.06L26.23 41.06Q32.10 41.59 37.55 43.77L37.55 43.77Q46.30 35.61 45.84 30.87L45.84 30.87Q45.14 23.63 37.83 22.68L37.83 22.68Q31.85 21.90 27.28 33.86L27.28 33.86Q26.40 36.07 26.23 41.06ZM21.20 25.28L21.20 25.28Q23.98 29.46 24.64 32.03L24.64 32.03Q25.35 29.46 28.09 25.28L28.09 25.28Q25.77 22.22 24.64 22.22L24.64 22.22Q23.59 22.22 21.20 25.28ZM23.06 41.06L23.06 41.06Q22.89 36.07 22.01 33.86L22.01 33.86Q17.44 21.90 11.46 22.68L11.46 22.68Q4.15 23.63 3.45 30.87L3.45 30.87Q2.99 35.61 11.74 43.77L11.74 43.77Q17.19 41.59 23.06 41.06ZM24.64 52.70L19.51 49.54L24.64 46.37L29.71 49.54L24.64 52.70ZM12.69 52.31L12.20 54L37.30 54L36.91 52.59L32.63 49.82L36.56 47.25Q29.85 44.65 24.64 44.61L24.64 44.61Q19.41 44.58 12.83 47.32L12.83 47.32L16.77 49.78L12.69 52.31Z"/></svg>