<svg xmlns="http://www.w3.org/2000/svg" xmlns:xlink="http://www.w3.org/1999/xlink" width="44" height="68"><path d="M8.12 28.48L5.91 30.06L7.56 31.64L9.07 29.43L8.12 28.48ZM22.36 23.52L22.36 23.52Q23.45 25.14 20.25 25.14L20.25 25.14L15.96 25.14L16.88 23.80Q19.76 19.55 22.36 23.52ZM10.55 53.79L10.55 53.79L37.48 53.79Q36.60 49.71 36.81 47.95L36.81 47.95Q38.60 35.02 36.25 29.04L36.25 29.04Q32.77 20.18 25.10 17.33L25.10 17.33L24.05 14.70L22.92 15.96Q20.57 17.40 17.40 19.30L17.40 19.30Q14.48 21.09 13.71 22.78L13.71 22.78L3.16 29.78L3.16 31.15L4.39 30.30L9.14 35.16Q11.78 33.36 14.87 33.29L14.87 33.29Q19.69 33.19 21.20 34.07L21.20 34.07Q21.62 33.54 23.55 33.47L23.55 33.47Q26.12 33.40 28.79 26.09L28.79 26.09Q30.73 30.30 28.37 33.82L28.37 33.82Q26.68 36.25 24.15 36.56L24.15 36.56Q22.78 36.74 22.39 37.76L22.39 37.76Q20.99 39.38 20.36 40.89L20.36 40.89Q19.20 43.42 15.47 44.33L15.47 44.33Q13.82 45.53 11.95 48.69L11.95 48.69Q10.55 51.08 10.55 53.79ZM11.60 35.02L11.60 35.02ZM-0.04 27.95L11.57 20.29Q11.71 19.13 14.94 17.12Q18.18 15.12 21.41 12.90L21.41 12.90L24.79 8.40L27.60 14.77Q37.55 19.76 40.25 27L40.25 27Q42.96 34.28 41.66 44.68L41.66 44.68Q41.17 48.45 41.80 51.57L41.80 51.57Q42.43 54.77 43.49 57.20L43.49 57.20L7.07 57.20Q6.79 51.96 8.19 48.32Q9.60 44.68 13.57 41.38L13.57 41.38Q15.86 40.89 16.95 39.30Q18.04 37.72 18.60 36.81L18.60 36.81Q15.12 36.21 13.08 36.88Q11.04 37.55 9.98 38.60L9.98 38.60Q9 39.55 8.65 40.61L8.65 40.61Q8.33 41.55 8.33 41.59L8.33 41.59L2.00 38.04L5.38 35.61L3.87 34.14L0.32 36.67L-0.04 27.95Z"/></svg>