<svg xmlns="http://www.w3.org/2000/svg" xmlns:xlink="http://www.w3.org/1999/xlink" width="44" height="68"><path d="M6.47 27.70L3.16 29.81L5.31 31.92L7.91 29.18L6.47 27.70ZM20.95 22.57L20.95 22.57Q18.35 18.63 15.43 22.82L15.43 22.82L13.96 24.96L18.25 24.96Q22.50 24.96 20.95 22.57ZM-0.32 27.95L11.29 20.29Q11.43 19.13 14.66 17.12Q17.89 15.12 21.13 12.90L21.13 12.90L24.50 8.40L27.32 14.77Q37.27 19.76 39.97 27L39.97 27Q42.68 34.28 41.38 44.68L41.38 44.68Q40.89 48.62 41.52 51.61L41.52 51.61Q42.15 54.77 43.21 57.16L43.21 57.16L6.79 57.20Q6.50 52.00 7.91 48.36Q9.32 44.72 13.29 41.38L13.29 41.38Q14.34 41.17 15.71 40.25L15.71 40.25Q17.26 39.27 17.26 39.23L17.26 39.23Q17.26 39.20 19.09 39.20L19.09 39.20Q20.95 39.16 23.15 38.34Q25.35 37.51 27.21 35.51L27.21 35.51Q29.14 33.40 29.14 28.72L29.14 28.72Q29.14 28.23 28.92 27.74Q28.69 27.25 28.62 26.68L28.62 26.68Q27.21 32.38 23.87 34.42L23.87 34.42Q20.64 36.39 18.32 36.11L18.32 36.11Q16.10 35.86 12.80 36.88L12.80 36.88Q10.76 37.55 9.70 38.60L9.70 38.60Q8.72 39.55 8.37 40.61L8.37 40.61Q8.05 41.55 8.05 41.59L8.05 41.59L1.72 38.04L5.10 35.61L3.59 34.17L0.04 36.67L-0.32 27.95ZM38.60 55.20L38.60 55.20Q35.61 51.40 36.11 46.16Q36.60 40.92 36.91 35.54L36.91 35.54Q37.20 30.16 35.44 25.24L35.44 25.24Q33.68 20.36 26.19 17.16L26.19 17.16Q32.63 25.24 32.91 27.18L32.91 27.18Q33.71 32.34 33.36 37.44L33.36 37.44Q32.94 43.00 33.01 47.07L33.01 47.07Q33.12 53.58 38.60 55.20Z"/></svg>