<svg xmlns="http://www.w3.org/2000/svg" xmlns:xlink="http://www.w3.org/1999/xlink" width="34" height="68"><path d="M33.86 57.20L16.95 57.20L0 57.20L0 55.02Q-0.14 52.66 1.20 50.99Q2.53 49.32 4.85 47.81L4.85 47.81Q8.30 45.18 9.91 41.48Q11.53 37.79 12.20 33.64L12.20 33.64L3.80 33.64L12.13 26.65Q9.60 24.43 9.60 21.09L9.60 21.09Q9.60 18.11 11.74 15.93L11.74 15.93Q13.89 13.78 16.95 13.78L16.95 13.78Q19.93 13.78 22.10 15.94Q24.26 18.11 24.26 21.09L24.26 21.09Q24.26 24.47 21.73 26.65L21.73 26.65L30.02 33.64L21.66 33.64Q22.29 37.79 23.91 41.48Q25.52 45.18 28.97 47.81L28.97 47.81Q31.29 49.32 32.63 50.99Q33.96 52.66 33.86 55.02L33.86 55.02L33.86 57.20Z"/></svg>