<svg xmlns="http://www.w3.org/2000/svg" xmlns:xlink="http://www.w3.org/1999/xlink" width="34" height="68"><path d="M16.80 26.16L12.06 30.87L21.73 30.87L17.05 26.16Q20.46 25.52 20.46 20.95L20.46 20.95Q20.46 17.02 16.95 16.95L16.95 16.95Q13.11 16.91 13.08 21.30L13.08 21.30Q13.04 25.80 16.80 26.16L16.80 26.16ZM3.69 53.72L3.69 53.72L29.95 53.72Q29.46 52.03 26.51 50.20L26.51 50.20Q23.80 48.55 20.81 43.21L20.81 43.21Q19.23 40.39 18.28 33.64L18.28 33.64L15.47 33.64Q14.98 39.09 13.04 43.21L13.04 43.21Q10.86 47.74 7.14 50.17L7.14 50.17Q3.90 52.24 3.69 53.72ZM33.86 57.20L16.95 57.20L0 57.20L0 55.02Q-0.14 52.66 1.20 50.99Q2.53 49.32 4.85 47.81L4.85 47.81Q8.30 45.18 9.91 41.48Q11.53 37.79 12.20 33.64L12.20 33.64L3.80 33.64L12.13 26.65Q9.60 24.43 9.60 21.09L9.60 21.09Q9.60 18.11 11.74 15.93L11.74 15.93Q13.89 13.78 16.95 13.78L16.95 13.78Q19.93 13.78 22.10 15.94Q24.26 18.11 24.26 21.09L24.26 21.09Q24.26 24.47 21.73 26.65L21.73 26.65L30.02 33.64L21.66 33.64Q22.29 37.79 23.91 41.48Q25.52 45.18 28.97 47.81L28.97 47.81Q31.29 49.32 32.63 50.99Q33.96 52.66 33.86 55.02L33.86 55.02L33.86 57.20Z"/></svg>