<svg xmlns="http://www.w3.org/2000/svg" xmlns:xlink="http://www.w3.org/1999/xlink" width="52" height="68"><path d="M25.73 52.70L20.60 49.54L25.73 46.37L30.80 49.54L25.73 52.70ZM13.78 52.31L13.29 54L38.39 54L38.00 52.59L33.71 49.82L37.65 47.25Q30.94 44.65 25.73 44.61L25.73 44.61Q20.50 44.58 13.92 47.32L13.92 47.32L17.86 49.78L13.78 52.31ZM10.20 34.91L13.57 43.66Q18.88 41.38 25.73 41.38L25.73 41.38Q32.48 41.41 37.93 43.66L37.93 43.66L41.27 34.91L36.49 38.25L33.12 22.04L25.73 37.20L18.14 22.04L14.98 38.25L10.20 34.91ZM42.75 57.20L25.73 57.20L8.65 57.20Q11.95 50.45 10.30 43.80L10.30 43.80Q8.65 37.20 4.36 30.62L4.36 30.62Q4.22 30.69 3.80 30.69L3.80 30.69Q2.21 30.69 1.11 29.58Q0 28.48 0 26.86L0 26.86Q0 25.28 1.11 24.15Q2.21 23.03 3.80 23.03Q5.38 23.03 6.54 24.15L6.54 24.15Q7.66 25.28 7.66 26.86L7.66 26.86Q7.66 27.46 7.49 27.95L7.49 27.95Q7.35 28.44 7.03 28.93L7.03 28.93L12.80 33.01L15.75 18.81Q13.82 17.86 13.64 15.75L13.64 15.75Q13.50 14.48 14.48 13.11L14.48 13.11Q15.47 11.71 17.03 11.53Q18.60 11.36 19.85 12.38Q21.09 13.39 21.23 14.98L21.23 14.98Q21.45 17.02 19.90 18.28L19.90 18.28L25.73 30.34L31.50 18.28Q29.95 17.02 30.16 14.98L30.16 14.98Q30.34 13.39 31.57 12.38L31.57 12.38Q32.77 11.36 34.38 11.53L34.38 11.53Q35.93 11.71 36.91 13.11L36.91 13.11Q37.93 14.48 37.79 15.75L37.79 15.75Q37.55 17.86 35.68 18.81L35.68 18.81L38.64 33.01L44.40 28.93Q44.02 28.44 43.91 27.95L43.91 27.95Q43.73 27.28 43.73 26.86L43.73 26.86Q43.73 25.28 44.86 24.15Q45.98 23.03 47.60 23.03L47.60 23.03Q49.18 23.03 50.31 24.15Q51.43 25.28 51.43 26.86L51.43 26.86Q51.43 28.48 50.31 29.58Q49.18 30.69 47.60 30.69L47.60 30.69Q47.21 30.69 47.04 30.62L47.04 30.62Q42.75 37.20 41.06 43.80L41.06 43.80Q39.41 50.45 42.75 57.20L42.75 57.20ZM3.80 25.49L3.80 25.49Q2.43 25.49 2.43 26.86L2.43 26.86Q2.43 28.20 3.80 28.20Q5.17 28.20 5.17 26.86L5.17 26.86Q5.17 25.49 3.80 25.49ZM17.44 13.96L17.44 13.96Q16.07 13.96 16.07 15.33L16.07 15.33Q16.07 16.66 17.44 16.66Q18.81 16.66 18.81 15.33L18.81 15.33Q18.81 13.96 17.44 13.96ZM47.60 25.49L47.60 25.49Q46.23 25.49 46.23 26.86L46.23 26.86Q46.23 28.20 47.60 28.20Q48.97 28.20 48.97 26.86L48.97 26.86Q48.97 25.49 47.60 25.49ZM34.00 13.96L34.00 13.96Q32.63 13.96 32.63 15.33L32.63 15.33Q32.63 16.66 34.00 16.66L34.00 16.66Q35.33 16.66 35.33 15.33L35.33 15.33Q35.33 13.96 34.00 13.96Z"/></svg>