<svg xmlns="http://www.w3.org/2000/svg" xmlns:xlink="http://www.w3.org/1999/xlink" width="52" height="68"><path d="M13.78 43.56L13.78 43.56L14.03 46.37Q20.29 43.73 25.77 43.73L25.77 43.73Q31.29 43.73 37.72 46.30L37.72 46.30L38.18 43.84Q32.03 40.82 25.77 40.78L25.77 40.78Q19.76 40.75 13.78 43.56ZM17.93 49.78L14.03 47.32L13.36 54L38.46 54L37.72 47.21L33.75 49.82L37.30 52.10L26.79 52.10L30.87 49.54L25.77 46.02L20.67 49.54L24.86 52.10L14.48 52.10L17.93 49.78ZM42.79 57.20L25.77 57.20L8.68 57.20Q11.99 50.45 10.34 43.80L10.34 43.80Q8.68 37.20 4.39 30.62L4.39 30.62Q4.25 30.69 3.83 30.69L3.83 30.69Q2.25 30.69 1.14 29.58Q0.04 28.48 0.04 26.86L0.04 26.86Q0.04 25.28 1.14 24.15Q2.25 23.03 3.83 23.03Q5.41 23.03 6.57 24.15L6.57 24.15Q7.70 25.28 7.70 26.86L7.70 26.86Q7.70 27.46 7.52 27.95L7.52 27.95Q7.38 28.44 7.07 28.93L7.07 28.93L12.83 33.01L15.79 18.81Q13.85 17.86 13.68 15.75L13.68 15.75Q13.54 14.48 14.52 13.11L14.52 13.11Q15.50 11.71 17.07 11.53Q18.63 11.36 19.88 12.38Q21.13 13.39 21.27 14.98L21.27 14.98Q21.48 17.02 19.93 18.28L19.93 18.28L25.77 30.34L31.54 18.28Q29.99 17.02 30.20 14.98L30.20 14.98Q30.38 13.39 31.61 12.38L31.61 12.38Q32.80 11.36 34.42 11.53L34.42 11.53Q35.96 11.71 36.95 13.11L36.95 13.11Q37.97 14.48 37.83 15.75L37.83 15.75Q37.58 17.86 35.72 18.81L35.72 18.81L38.67 33.01L44.44 28.93Q44.05 28.44 43.95 27.95L43.95 27.95Q43.77 27.28 43.77 26.86L43.77 26.86Q43.77 25.28 44.89 24.15Q46.02 23.03 47.64 23.03L47.64 23.03Q49.22 23.03 50.34 24.15Q51.47 25.28 51.47 26.86L51.47 26.86Q51.47 28.48 50.34 29.58Q49.22 30.69 47.64 30.69L47.64 30.69Q47.25 30.69 47.07 30.62L47.07 30.62Q42.79 37.20 41.10 43.80L41.10 43.80Q39.45 50.45 42.79 57.20L42.79 57.20Z"/></svg>