<svg xmlns="http://www.w3.org/2000/svg" xmlns:xlink="http://www.w3.org/1999/xlink" width="38" height="68"><path d="M5.63 21.87L10.09 24.96L27.60 24.96L32.03 21.97L32.31 16.73L29.78 16.73L29.78 20.95L20.21 20.95L20.21 16.73L17.44 16.73L17.44 20.95L7.98 20.95L7.98 16.73L5.34 16.73L5.63 21.87ZM10.13 28.48L9.07 44.33L28.41 44.33L27.39 28.48L10.13 28.48ZM4.11 51.12L3.87 54L33.71 54L33.40 51.01L29.18 47.81L8.47 47.81L4.11 51.12ZM18.77 57.20L0 57.20L0.84 49.46L5.52 45.98L6.96 26.68L2.60 23.55L2.11 13.54L10.58 13.54L10.58 17.86L14.59 17.86L14.59 13.54L22.96 13.54L22.96 17.86L27 17.86L27 13.54L35.44 13.54L34.95 23.55L30.59 26.68L32.06 45.98L36.70 49.46L37.58 57.20L18.77 57.20Z"/></svg>