<svg xmlns="http://www.w3.org/2000/svg" xmlns:xlink="http://www.w3.org/1999/xlink" width="38" height="68"><path d="M37.58 57.20L18.77 57.20L0 57.20L0.84 49.46L5.52 45.98L6.96 26.68L2.60 23.55L2.11 13.54L10.58 13.54L10.58 17.86L14.59 17.86L14.59 13.54L18.77 13.54L22.96 13.54L22.96 17.86L27 17.86L27 13.54L35.44 13.54L34.95 23.55L30.59 26.68L32.06 45.98L36.70 49.46L37.58 57.20ZM9.74 28.62L27.84 28.62L27.63 25.21L9.95 25.21L9.74 28.62ZM29.04 44.19L8.51 44.19L8.30 47.60L29.25 47.60L29.04 44.19Z"/></svg>